<svg xmlns="http://www.w3.org/2000/svg" width="149.193" height="50.001" viewBox="0 0 149.193 50.001"><defs><style>.a,.b{fill:#fff;}.b{opacity:0.5;}</style></defs><g transform="translate(-920.335 -1268.735)"><g transform="translate(920.335 1268.735)"><path class="a" d="M1026.457,1289.156c.069-.33.188-.469.553-.459,1.057,0,1.969,0,2.994,0,.435,0,.492.1.4.5q-1.432,5.939-2.834,11.886c-.407,1.713-.8,3.36-1.207,5.072a9.531,9.531,0,0,0-.158,2.518c-.016,1.64,0,3.259,0,4.9a.419.419,0,0,1-.414.418c-.681,0-2.456-.006-3.123-.006a.412.412,0,0,1-.414-.392c0-1.161.016-3.745.016-4.916a9.263,9.263,0,0,0-.217-2.516c-.251-1.121-.487-2.006-.881-3.545-1.137-4.446-2.088-8.938-3.143-13.4-.095-.4-.025-.514.411-.516,1.013-.006,1.877,0,2.941,0,.387,0,.511.119.584.485.719,3.592,1.459,6.922,2.193,10.512C1024.337,1298.85,1026.01,1291.315,1026.457,1289.156Z" transform="translate(-957.684 -1276.368)"/><path class="a" d="M1119.336,1308.548a6.108,6.108,0,0,1-12.17-.1q-.009-7.016,0-14.032a5.676,5.676,0,0,1,5.914-5.618c3.744.025,6.255,2.507,6.255,5.6Zm-3.943-7.243h.005c0-1.9,0-4.736,0-6.639a2.149,2.149,0,1,0-4.285,0c0,4.215-.007,9.05,0,13.264,0,1.279.431,2.547,2.134,2.547,1.776,0,2.145-1.446,2.145-2.549C1115.395,1305.812,1115.394,1303.421,1115.394,1301.3Z" transform="translate(-991.788 -1276.409)"/><path class="a" d="M1048.55,1301.038c0-2.507,0-5.272,0-7.779,0-1.353.019-2.707-.01-4.059-.009-.415.122-.492.51-.492,1.11,0,1.575,0,2.991,0,.332,0,.462.066.461.435,0,8.375-.01,16.272,0,24.408,0,.355-.1.453-.45.446-1.213,0-1.948,0-3.1,0a.6.6,0,0,1-.722-.54c-1.1-4.1-3.468-12.634-3.6-13,.006.157,0,.429,0,.584,0,4.13-.01,8.26.007,12.39,0,.435-.1.58-.554.564-1.227,0-1.685-.005-2.99-.005-.3.005-.419-.078-.405-.388.02-.444,0-.89,0-1.335v-22.805c0-.752,0-.752.777-.752,1.194,0,1.761-.013,3.151-.013a.611.611,0,0,1,.716.553C1046.319,1292.945,1048.55,1301.038,1048.55,1301.038Z" transform="translate(-966.362 -1276.372)"/><path class="a" d="M1084.461,1301.346c0-2.224,0-4.449,0-6.674a5.689,5.689,0,0,1,5.853-5.969c4.251,0,6.354,2.676,6.319,6.2-.012,1.143-.007,1.716.01,2.859,0,.345-.059.453-.49.453-1.042,0-2.037-.006-3.056,0-.35,0-.407-.135-.41-.458-.01-1.084-.038-1.682-.038-2.864,0-1.238-.441-2.579-2.116-2.579-1.923,0-2.123,1.753-2.123,2.524,0,4.147,0,8.873,0,13.02,0,1.856.892,2.57,2.158,2.57,1.569,0,2.119-1.105,2.119-2.588,0-1.071.025-2.207,0-3.277-.008-.382.113-.472.482-.472,1.39,0,1.559.01,2.983.01.364,0,.485.058.485.437a29.513,29.513,0,0,1-.128,4.81,6.046,6.046,0,0,1-5.945,4.66,5.978,5.978,0,0,1-6.093-5.506c-.027-2.385-.005-4.77-.005-7.156Z" transform="translate(-983.104 -1276.372)"/><path class="a" d="M1063.445,1301.344c0-4.022,0-8.045-.008-12.068,0-.369.049-.522.479-.521q5.206.007,10.412-.043c.38,0,.538.065.522.49-.034.871-.033,1.745,0,2.616.016.417-.13.5-.517.5-2.331,0-3.878-.02-6.408-.02-.453-.006-.554.123-.548.56.025,1.887.021,3.773,0,5.66,0,.377.1.474.472.47,2.384,0,3.819-.019,6.461-.019.414,0,.556.1.538.529,0,.968,0,1.481,0,2.562.013.392-.089.517-.5.513-2.2,0-4.145-.019-6.461-.019-.381,0-.516.068-.511.488q.034,3.443,0,6.888c0,.4.1.506.5.5,2.153-.021,4.307,0,6.461-.019.4,0,.526.1.511.505,0,1.245-.02,1.744,0,2.616.006.322-.046.474-.429.472q-5.286-.022-10.573,0c-.417,0-.4-.2-.4-.486Q1063.448,1307.432,1063.445,1301.344Z" transform="translate(-975.065 -1276.375)"/><path class="a" d="M1000.954,1306.463c.348,0,.421.11.421.43a7.723,7.723,0,0,0,.182,2.066,1.916,1.916,0,0,0,2.064,1.484,2.083,2.083,0,0,0,2.069-1.488,8.234,8.234,0,0,0-.03-4.031,2.309,2.309,0,0,0-2.328-1.828,7.292,7.292,0,0,1-4.559-1.817,4.926,4.926,0,0,1-1.4-3.553,31.274,31.274,0,0,1,.107-4.214c.271-2.63,2.408-4.816,6.022-4.816,3.539,0,6.1,1.971,6.1,5.8.007.463.006.89.006,1.387,0,.283-.091.368-.367.365l-3.2,0c-.314.005-.39-.109-.383-.4a7.189,7.189,0,0,0-.145-2.138,1.908,1.908,0,0,0-2.069-1.409,1.955,1.955,0,0,0-2.069,1.5,9.951,9.951,0,0,0,.055,4.776,2.732,2.732,0,0,0,2.351,1.418,7.173,7.173,0,0,1,4.456,1.858,4.62,4.62,0,0,1,1.294,2.833,20.033,20.033,0,0,1,.008,4.474,5.673,5.673,0,0,1-5.877,4.858c-4.392,0-6.262-2.762-6.262-5.666-.017-.484-.008-1.018-.008-1.489,0-.292.1-.4.54-.4Z" transform="translate(-949.788 -1276.369)"/><path class="a" d="M920.335,1299.048a.247.247,0,0,1,.25-.251c2.421,0,2.91.006,7.081.006.4.005.455-.062.463-.466a16.382,16.382,0,0,1,2.37-8.5,16.925,16.925,0,0,1,11.974-8.239,17.17,17.17,0,0,1,17.146,7.314.547.547,0,0,1-.151.76c-1.075.681-2,1.275-3.119,1.975a.5.5,0,0,1-.7-.133,12.335,12.335,0,0,0-7.721-5.275,12.592,12.592,0,0,0-14.588,16.344c.128.395.222.508-.2.506-2.244-.016-4.583,0-6.827,0-.237,0-.662,0-.941,0a21.644,21.644,0,0,0,1.361,4.014,20.164,20.164,0,0,0,15.6,11.642,20.394,20.394,0,0,0,19.961-9,.493.493,0,0,1,.672-.14c.074.051,3.054,1.914,3.125,1.958a.488.488,0,0,1,.175.66,25.269,25.269,0,0,1-16.014,10.876,25.008,25.008,0,0,1-29.746-21.377C920.4,1300.769,920.348,1299.745,920.335,1299.048Z" transform="translate(-920.335 -1273.566)"/><path class="a" d="M949.547,1269.038a24.959,24.959,0,0,1,17,10.957.476.476,0,0,1-.148.694c-1.247.782-1.827,1.142-3.136,1.971a.526.526,0,0,1-.7-.123,20.565,20.565,0,0,0-11.788-8.483A20.245,20.245,0,0,0,925.5,1290.5a.474.474,0,0,1-.737.358c-.048-.027-2.228-1.4-3.31-2.091a.521.521,0,0,1-.184-.569,25.023,25.023,0,0,1,18.768-18.827,21.956,21.956,0,0,1,3.235-.522A26.008,26.008,0,0,1,949.547,1269.038Z" transform="translate(-920.685 -1268.735)"/><path class="a" d="M955.124,1294.037a9.233,9.233,0,0,1,7.553,3.882.589.589,0,0,1-.138.765c-.928.589-2.123,1.339-3.1,1.953a.542.542,0,0,1-.706-.119,4.737,4.737,0,0,0-8.4,1.98,4.736,4.736,0,0,0,8.413,3.778.57.57,0,0,1,.778-.123c.224.163,2.995,1.893,3.058,1.932a.473.473,0,0,1,.1.673,9.344,9.344,0,1,1-8.833-14.632A11.125,11.125,0,0,1,955.124,1294.037Z" transform="translate(-930.023 -1278.412)"/><path class="a" d="M951.811,1330.54a16.949,16.949,0,0,1-14.131-7.53.532.532,0,0,1,.151-.724l3.005-1.905a.588.588,0,0,1,.726.125.878.878,0,0,1,.071.1,12.1,12.1,0,0,0,8.792,5.231,12.492,12.492,0,0,0,11.834-5.456.447.447,0,0,1,.662-.137c.556.353,2.109,1.311,3.184,1.993a.53.53,0,0,1,.135.716,16.89,16.89,0,0,1-10.728,7.207A19.41,19.41,0,0,1,951.811,1330.54Z" transform="translate(-926.936 -1288.399)"/></g><path class="b" d="M1159.619,1317.507a6.116,6.116,0,0,0-1.131-3.6.392.392,0,0,1-.107.462c-.61.387-1.372.862-2.011,1.265a.36.36,0,0,1-.469-.067c-.024-.031.027.035.122.172a3.28,3.28,0,0,1,.475,1.182,3.052,3.052,0,0,1-.445,2.205c-.031.046-.138.2-.138.2a.386.386,0,0,1,.511-.067c.3.194,1.968,1.244,2.009,1.269a.308.308,0,0,1,.071.432A5.917,5.917,0,0,0,1159.619,1317.507Z" transform="translate(-90.091 -17.277)"/><g transform="translate(995.175 1308.521)"><path class="a" d="M1046.172,1337.468v-.067q1.512-.166,1.512-1.856a2.083,2.083,0,0,0-.7-1.806,4.142,4.142,0,0,0-2.357-.507q-2.012,0-3.1.112v7.67h2.056v-2.891h.945a.789.789,0,0,1,.483.124.772.772,0,0,1,.24.455l.545,2.312h2.189l-.634-2.368A1.353,1.353,0,0,0,1046.172,1337.468Zm-.794-1.056a1.213,1.213,0,0,1-.795.19h-1v-1.846h1a1.214,1.214,0,0,1,.795.189,1.411,1.411,0,0,1,0,1.467Z" transform="translate(-1041.525 -1333.188)"/><path class="a" d="M1055.649,1334.981h2.878l.1-1.5q-1.089-.121-3.8-.122a1.776,1.776,0,0,0-1.262.45,1.555,1.555,0,0,0-.484,1.195v4.446a1.565,1.565,0,0,0,.477,1.195,1.772,1.772,0,0,0,1.268.45q2.712,0,3.8-.122l-.1-1.5h-2.878a.423.423,0,0,1-.478-.479v-1.166h2.945v-1.434h-2.945v-.933A.423.423,0,0,1,1055.649,1334.981Z" transform="translate(-1045.945 -1333.237)"/><path class="a" d="M1066.575,1333.232q-2,0-3.09.112v7.67h2.09v-2.735a12.038,12.038,0,0,0,1.289.078,3.2,3.2,0,0,0,2.129-.539,2.677,2.677,0,0,0,.595-2.018,2.569,2.569,0,0,0-.639-2.033A3.837,3.837,0,0,0,1066.575,1333.232Zm.723,3.391a1.055,1.055,0,0,1-.767.211h-.956v-2.078h.956a1.055,1.055,0,0,1,.767.211,1.251,1.251,0,0,1,.2.833A1.228,1.228,0,0,1,1067.3,1336.623Z" transform="translate(-1049.924 -1333.188)"/><path class="a" d="M1079.7,1333.512a4.761,4.761,0,0,0-2.034-.351,3.494,3.494,0,0,0-2.684.839,6.994,6.994,0,0,0,0,6.3,3.494,3.494,0,0,0,2.684.839,4.771,4.771,0,0,0,2.034-.35,2.171,2.171,0,0,0,1.067-1.211,8.736,8.736,0,0,0,0-4.859A2.167,2.167,0,0,0,1079.7,1333.512Zm-1.044,5.541a1.246,1.246,0,0,1-1.979,0,7.2,7.2,0,0,1,0-3.8,1.246,1.246,0,0,1,1.979,0,7.2,7.2,0,0,1,0,3.8Z" transform="translate(-1054.034 -1333.161)"/><path class="a" d="M1091.549,1337.468v-.067q1.512-.166,1.512-1.856a2.083,2.083,0,0,0-.7-1.806,4.142,4.142,0,0,0-2.357-.507q-2.012,0-3.1.112v7.67h2.057v-2.891h.945a.789.789,0,0,1,.483.124.774.774,0,0,1,.24.455l.544,2.312h2.19l-.634-2.368A1.353,1.353,0,0,0,1091.549,1337.468Zm-.794-1.056a1.213,1.213,0,0,1-.795.19h-1v-1.846h1a1.214,1.214,0,0,1,.795.189,1.412,1.412,0,0,1,0,1.467Z" transform="translate(-1058.88 -1333.188)"/><path class="a" d="M1097.612,1335.025h2.2v6.058h2.09v-6.058h2.212v-1.612h-6.5Z" transform="translate(-1062.976 -1333.257)"/><path class="a" d="M1114.3,1337.459a2.828,2.828,0,0,0-1.3-.9l-1.412-.543a1.81,1.81,0,0,1-.577-.283.5.5,0,0,1-.156-.4.388.388,0,0,1,.183-.389,1.9,1.9,0,0,1,.717-.089q.588,0,2.556.034l.133-1.368a8.754,8.754,0,0,0-2.667-.343,4.365,4.365,0,0,0-2.334.449,1.977,1.977,0,0,0-.656,1.74,2.327,2.327,0,0,0,.377,1.384,2.845,2.845,0,0,0,1.279.895l1.534.611a1.532,1.532,0,0,1,.483.256.521.521,0,0,1,.128.39.387.387,0,0,1-.183.383,1.872,1.872,0,0,1-.739.094q-.4,0-2.679-.056l-.122,1.478a11.645,11.645,0,0,0,2.812.333,4.1,4.1,0,0,0,2.35-.489,2.115,2.115,0,0,0,.651-1.79A2.379,2.379,0,0,0,1114.3,1337.459Z" transform="translate(-1067.251 -1333.169)"/></g><path class="a" d="M1148.456,1318.838c-.041-.025-1.862-1.162-2.01-1.269a.382.382,0,0,0-.517.077,3.176,3.176,0,0,1-2.471,1.23,3.1,3.1,0,0,1-2.134-.853,3.058,3.058,0,0,1-.975-2.255,3.121,3.121,0,0,1,.987-2.267,3.055,3.055,0,0,1,2.1-.84,3.1,3.1,0,0,1,2.261.952,2.823,2.823,0,0,1,.222.261.355.355,0,0,0,.464.078c.64-.4,1.412-.884,2.022-1.271a.392.392,0,0,0,.107-.462c-.027-.039-.052-.079-.08-.117a6.547,6.547,0,0,0-1.926-1.7,6.119,6.119,0,0,0-3-.795,6.148,6.148,0,0,0-5.355,3.14,3.462,3.462,0,0,0-.9-2.352,4.189,4.189,0,0,0-3.045-.91,15.42,15.42,0,0,0-1.953.113c-.569.073-1.21.178-1.961.319l-.273.05v2.775h3.665a1.367,1.367,0,0,1,.874.2.741.741,0,0,1,.211.6,1.617,1.617,0,0,1-.245.838,5.377,5.377,0,0,1-.873,1.041l-3.853,3.885v2.651h8.7V1319.3c.059.083.11.167.176.25a6.118,6.118,0,0,0,7.7,1.62,6.721,6.721,0,0,0,2.145-1.9A.308.308,0,0,0,1148.456,1318.838Zm-13.918.007,1.736-1.748a8.559,8.559,0,0,0,1.086-1.309,6.171,6.171,0,0,0,.847,3.057Z" transform="translate(-80.111 -15.586)"/><path class="b" d="M1159.619,1296.784a6.118,6.118,0,0,0-1.131-3.6.392.392,0,0,1-.107.462c-.61.387-1.372.862-2.011,1.265a.361.361,0,0,1-.469-.067c-.024-.031.027.035.122.172a3.286,3.286,0,0,1,.475,1.182,3.051,3.051,0,0,1-.445,2.2c-.031.046-.138.2-.138.2a.387.387,0,0,1,.511-.067c.3.194,1.968,1.244,2.009,1.27a.308.308,0,0,1,.071.432A5.916,5.916,0,0,0,1159.619,1296.784Z" transform="translate(-90.091 -9.351)"/><path class="a" d="M1148.518,1298.1c-.042-.025-1.862-1.162-2.01-1.27a.381.381,0,0,0-.517.078,3,3,0,0,1-.3.332,3.039,3.039,0,0,1-2.174.9,3.1,3.1,0,0,1-2.134-.854,3.058,3.058,0,0,1-.975-2.255,3.117,3.117,0,0,1,.987-2.267,3.055,3.055,0,0,1,2.1-.841,3.1,3.1,0,0,1,2.261.952,2.95,2.95,0,0,1,.222.261.356.356,0,0,0,.464.078c.64-.4,1.412-.884,2.022-1.272a.392.392,0,0,0,.107-.462c-.027-.038-.052-.078-.08-.116a6.533,6.533,0,0,0-1.926-1.7,6.119,6.119,0,0,0-3-.795,6.121,6.121,0,0,0-5.265,2.99,3.4,3.4,0,0,0-.889-2.231,4.189,4.189,0,0,0-3.045-.91,15.42,15.42,0,0,0-1.953.113c-.57.074-1.211.178-1.961.319l-.273.051v2.775h3.665a1.369,1.369,0,0,1,.874.2.741.741,0,0,1,.211.6,1.616,1.616,0,0,1-.245.838,5.41,5.41,0,0,1-.873,1.041l-3.853,3.886v2.65h8.7V1298.7c.027.036.048.072.077.109a6.12,6.12,0,0,0,7.7,1.62,6.728,6.728,0,0,0,2.145-1.9A.308.308,0,0,0,1148.518,1298.1Zm-13.819-.02,1.737-1.748a8.821,8.821,0,0,0,.989-1.17,6.154,6.154,0,0,0,.828,2.918Z" transform="translate(-80.173 -7.643)"/></g></svg>