<svg xmlns="http://www.w3.org/2000/svg" width="30" height="30" viewBox="0 0 30 30"><defs><style>.a{fill:#fff;}</style></defs><path class="a" d="M21.652,17.048a4.287,4.287,0,1,0,4.406,4.286A4.36,4.36,0,0,0,21.652,17.048Zm11.566,4.286a10.555,10.555,0,0,1-.11,1.457l3.261,2.486a.743.743,0,0,1,.176.964l-3.084,5.186a.79.79,0,0,1-.947.321l-3.833-1.5a11.9,11.9,0,0,1-2.6,1.479l-.573,3.964a.793.793,0,0,1-.771.643H18.568a.8.8,0,0,1-.771-.621l-.573-3.964a11.406,11.406,0,0,1-2.6-1.479l-3.833,1.5a.79.79,0,0,1-.947-.321L6.759,26.262a.743.743,0,0,1,.176-.964L10.2,22.812a11.13,11.13,0,0,1-.11-1.479,10.554,10.554,0,0,1,.11-1.457L6.936,17.39a.743.743,0,0,1-.176-.964L9.844,11.24a.79.79,0,0,1,.947-.321l3.833,1.5a11.9,11.9,0,0,1,2.6-1.479L17.8,6.976a.793.793,0,0,1,.771-.643h6.169a.8.8,0,0,1,.771.621l.573,3.964a11.406,11.406,0,0,1,2.6,1.479l3.833-1.5a.79.79,0,0,1,.947.321L36.545,16.4a.743.743,0,0,1-.176.964l-3.261,2.486a11.13,11.13,0,0,1,.11,1.479Z" transform="translate(-6.652 -6.333)"/></svg>